<?xml version='1.0' encoding='utf-8'?>
<svg xmlns="http://www.w3.org/2000/svg" width="887px" height="887px" version="1.1" viewBox="96 621 887 887"> <g stroke-linejoin="miter"> <g fill="#00aec7"> <path d="m95.999 620.52c-0.12812 0-0.25099 0.05093-0.34158 0.1415-0.090594 0.0906-0.14149 0.2135-0.14149 0.3416l1e-3 887c0 0.2668 0.21628 0.483 0.48307 0.483l887 1e-3c0.1281 0 0.251-0.0509 0.3416-0.1415 0.09057-0.0905 0.1415-0.2133 0.1415-0.3415l-1e-3 -887c0-0.2668-0.2163-0.4831-0.4831-0.4831l-887-1e-3z"/> </g> <g fill="#222b32"> <path d="m557.31 810.99 30.496 13.723q-50.317 3.354-100.63 6.7079 19.33-16.794 38.66-33.587l31.476 13.156"/> <path d="m562.48 811.15 1.4791-0.09836q15.46-1.1067 28.102 2.1935 4.8597 1.2684 8.9988 3.8358 2.0343 1.3004 3.6761 3.026l1.5086 1.8486q3.9922 6.0551 3.472 16.039-0.16914 8.0888-3.5755 25.347l-43.661-52.191"/> <path d="m529.82 806.84-3.1836 0.1894q-20.97 1.072-32.472 3.5542-10.334 2.1252-16.288 6.8817-1.4513 1.2149-2.5543 2.6455l-1.0082 1.4899q-1.8042 3.1119-2.1742 7.1234-0.70136 6.986 2.1292 20.432l55.551-42.316"/> <path d="m490.73 824.94 110.58 1e-3q-4e-5 62.331-4e-5 124.66-55.292 6.1e-4 -110.58 0.0011 0-62.332 0-124.66"/> </g> <g fill="#fff"> <path d="m554.54 804.9 7.1463 0.8585 10.685 107.69-48.696-3.2879-2.797-96.213 21.268 12.223 12.394-21.267"/> </g> <g fill="#000"> <path d="m541.97 823.35-2.4526 4.2849-2.4526 4.2848q3.4432 5.1148 6.8864 10.229 2.3799-6.2978 4.7599-12.596l-6.741-6.2035"/> <path d="m542.08 833.48-4.9282 35.286q8.8864 0.2234 17.773 0.4468-5.0461-17.972-10.092-35.944l-2.7524 0.21165"/> <path d="m601.83 820.65v1.4e-4h-1e-4l1e-4 -1.4e-4"/> <path d="m575.83 796.1-0.5425 4.4489q-2.8671 13.378-13.668 20.907-10.872 7.5184-24.929 5.224-13.378-2.8671-20.907-13.668-2.4107-3.49-3.8748-7.5309l-1.1904-4.1372q-0.93518-4.2544-0.70123-8.8115 1.1109-13.964 10.899-22.746 9.7886-8.7818 23.791-8.3766 13.964 1.1108 22.746 10.899 8.7818 9.7886 8.3767 23.791"/> </g> <g fill="#ffb28c"> <path d="m571.14 811.34q-8.6429 5.7382-14.096 8.123-7.4401 2.9729-8.9307 2.9535-2.9783 0.59533-5.9593 0.54138-0.4034-0.01015-0.8069-0.03185-2.5779-0.13966-5.1576-0.76515-0.0187-6.1e-4 -0.03815-0.00171-1.5456-0.08374-8.917-3.3346-6.2908-3.2755-12.586-7.5988l-0.0054 6.4e-4q0.5407 0.91052 1.1464 1.7874 7.5287 10.801 20.907 13.668 2.2344 0.3646 4.3884 0.48157 11.396 0.61768 20.54-5.7056 5.9736-4.1639 9.5204-10.117z"/> </g> <g fill="#222b32"> <path d="m611.21 887.83v1e-4q0.7175-120.24 0-1e-4"/> </g> <g fill="#ffb28c"> <path d="m547.01 825.77-0.3857 0.5763q-1.1562 1.7911-2.32 3.0214-0.38826 0.38928-0.7781 0.65403l-0.3905 0.2256-0.3915 0.14783-0.3926 0.06214-0.0707 0.00158-0.3882-0.04345-0.3894-0.1254-0.3903-0.1998q-0.3908-0.23706-0.78326-0.59314-0.98078-0.86072-2.7586-3.3272l9.4389-0.3999"/> <path d="m635.22 825.12 6e-5 1e-4h7e-5l-1.3e-4 -1e-4"/> </g> <g fill="#6f9c88"> <path d="m262.32 1058.2 13.723-30.497q3.354 50.317 6.7079 100.63-16.794-19.33-33.587-38.66l13.156-31.477"/> <path d="m262.48 1053-0.09845-1.479q-1.1066-15.46 2.1935-28.102 1.2684-4.8596 3.8358-8.9985 1.3004-2.0342 3.026-3.6762l1.8486-1.5084q6.0551-3.9921 16.039-3.472 8.089 0.16919 25.347 3.5756l-52.191 43.661"/> <path d="m258.16 1085.7 0.18944 3.1838q1.0722 20.97 3.5543 32.472 2.1252 10.334 6.8818 16.288 1.2148 1.4512 2.6456 2.5542l1.4898 1.0083q3.1119 1.804 7.1233 2.1741 6.9861 0.7012 20.432-2.1291l-42.316-55.551"/> <path d="m276.27 1124.8 5.5e-4 -55.292 4.8e-4 -55.291q62.331 0 124.66 0 4.9e-4 55.291 0.00104 110.58-62.332 0-124.66 0"/> </g> <g fill="#fff"> <path d="m256.23 1061 0.8584-7.146 107.69-10.684-3.288 48.696-96.212 2.7971 12.223-21.268-21.267-12.394"/> </g> <g fill="#000"> <path d="m274.68 1073.5 8.5697 4.9053q5.1147-3.4431 10.229-6.8865-6.2978-2.3799-12.596-4.76l-6.2036 6.7412"/> <path d="m284.81 1073.4 35.285 4.9282q0.22338-8.8864 0.44676-17.773-17.972 5.0463-35.944 10.092l0.21173 2.7524"/> <path d="m271.98 1013.7h1.2e-4 -1.2e-4"/> <path d="m247.43 1039.7 4.4489 0.5423q13.378 2.8674 20.907 13.668 7.5184 10.872 5.2241 24.929-2.8672 13.378-13.668 20.907-3.49 2.4106-7.5309 3.8747l-4.1372 1.1904q-4.2544 0.9351-8.8115 0.7012-13.964-1.1111-22.746-10.9-8.7818-9.7886-8.3766-23.791 1.1108-13.964 10.899-22.746 9.7885-8.7822 23.791-8.3767"/> </g> <g fill="#ffb28c"> <path d="m262.66 1044.4q5.7381 8.6428 8.123 14.096 2.973 7.4402 2.9536 8.9307 0.59547 2.9785 0.54145 5.9595-0.01007 0.4033-0.0318 0.8068-0.13971 2.5779-0.7652 5.1575-5.5e-4 0.0188-0.00165 0.0383-0.0838 1.5455-3.3349 8.9168-3.2754 6.291-7.5987 12.586l7.4e-4 0.0053q0.9104-0.5407 1.7873-1.1464 10.801-7.5289 13.668-20.907 0.36463-2.2346 0.4815-4.3884 0.61773-11.396-5.7056-20.54-4.164-5.9736-10.117-9.5202z"/> </g> <g fill="#222b32"> <path d="m339.16 1004.3h1.8e-4q-120.24-0.7175-1.8e-4 0"/> </g> <g fill="#ffb28c"> <path d="m277.1 1068.5 0.57635 0.3857q1.7911 1.1563 3.0214 2.3201 0.38928 0.3882 0.65399 0.7781l0.22571 0.3904 0.14783 0.3913 0.06213 0.3928 0.00147 0.0708-0.0434 0.3882-0.12543 0.3894-0.19977 0.3904q-0.237 0.3906-0.5932 0.7832-0.8606 0.9807-3.3271 2.7586l-0.39995-9.439"/> <path d="m276.44 980.3 6e-5 -1e-4h6e-5l-1.2e-4 1e-4"/> </g> <g fill="#394458"> <path d="m533.09 1355.2-30.496-13.723q50.316-3.354 100.63-6.7077-19.33 16.794-38.66 33.587l-31.476-13.156"/> <path d="m527.92 1355-1.4791 0.0982q-15.46 1.1069-28.102-2.1934-4.8597-1.2683-8.9988-3.8357-2.0342-1.3003-3.6761-3.0261l-1.5086-1.8487q-3.9922-6.0551-3.472-16.039 0.16919-8.0887 3.5757-25.346l43.661 52.191"/> <path d="m560.58 1359.4 3.1837-0.1895q20.97-1.072 32.472-3.5542 10.334-2.125 16.288-6.8816 1.4514-1.2151 2.5542-2.6455l1.0083-1.49q1.8041-3.1118 2.1742-7.1233 0.70141-6.9861-2.1291-20.431l-55.551 42.316"/> <path d="m599.67 1341.3-110.58-0.0012q0-62.331 0-124.66 55.292-5e-4 110.58-1e-3 0 62.332 0 124.66"/> </g> <g fill="#222b32"> <path d="m600.44 1449.5v-5e-4 5e-4 -5e-4q0 3e-4 0 5e-4"/> </g> <g fill="#fff"> <path d="m535.86 1361.3-7.1463-0.8584-10.685-107.69 48.696 3.2881 2.7968 96.212-21.268-12.223-12.394 21.267"/> </g> <g fill="#000"> <path d="m548.43 1342.8 2.4526-4.2846 2.4525-4.2852q-3.443-5.1145-6.8862-10.229-2.38 6.2976-4.76 12.596l6.741 6.2033"/> <path d="m548.32 1332.7 2.4642-17.642 2.4642-17.643q-8.8865-0.2234-17.773-0.4468 5.0461 17.972 10.092 35.943l2.7524-0.2117"/> <path d="m488.57 1345.5v-3e-4h5e-5l-5e-5 3e-4"/> <path d="m514.57 1370.1 0.54247-4.4489q2.8671-13.378 13.668-20.907 10.872-7.5186 24.929-5.2241 13.378 2.8671 20.907 13.668 2.4108 3.49 3.8748 7.5307l1.1903 4.1372q0.93527 4.2544 0.70137 8.8116-1.111 13.964-10.9 22.746-9.7886 8.7817-23.791 8.3765-13.964-1.1109-22.746-10.899t-8.3766-23.791"/> </g> <g fill="#ffb28c"> <path d="m519.26 1354.9q8.6429-5.7381 14.096-8.1231 7.4402-2.9729 8.9306-2.9534 2.9784-0.5954 5.9594-0.5415 0.40345 0.01 0.80695 0.0318 2.5778 0.1396 5.1576 0.7651 0.01866 5e-4 0.0381 0.0017 1.5457 0.0838 8.917 3.335 6.2908 3.2754 12.586 7.5986l0.00537-7e-4q-0.54071-0.9104-1.1464-1.7871-7.5288-10.801-20.907-13.668-2.2344-0.3646-4.3884-0.4815-11.396-0.6177-20.54 5.7056-5.9736 4.164-9.5203 10.117z"/> </g> <g fill="#222b32"> <path d="m479.19 1278.4v-3e-4q-0.71741 120.24 0 3e-4"/> </g> <g fill="#ffb28c"> <path d="m543.39 1340.4 0.38568-0.5764q1.1562-1.7911 2.32-3.0215 0.38819-0.3892 0.77808-0.6538l0.39047-0.2256 0.39145-0.148 0.3927-0.062 0.07065-0.0015 0.3882 0.0433 0.38936 0.1254 0.39034 0.1998q0.39085 0.237 0.78324 0.5932 0.98076 0.8606 2.7586 3.3272l-9.4388 0.3999"/> <path d="m455.18 1341.1h-1.2e-4 1.2e-4"/> </g> <g fill="#b76056"> <path d="m828.08 1108-13.723 30.497q-3.354-50.317-6.7078-100.63 16.794 19.33 33.587 38.66l-13.156 31.477"/> <path d="m827.92 1113.2 0.09833 1.479q1.1067 15.46-2.1936 28.102-1.2683 4.8597-3.8357 8.9988-1.3004 2.0342-3.026 3.676l-1.8486 1.5086q-6.0551 3.9922-16.039 3.4722-8.089-0.1692-25.347-3.5757l52.191-43.661"/> <path d="m832.24 1080.5-0.1894-3.1836q-1.0721-20.97-3.5543-32.472-2.1251-10.334-6.8817-16.288-1.2148-1.4512-2.6456-2.5542l-1.4898-1.0083q-3.1118-1.804-7.1232-2.1742-6.9862-0.7013-20.432 2.1292l42.316 55.551"/> <path d="m814.13 1041.4-6e-4 55.292-3.5e-4 55.292q-62.331 0-124.66 0-5.4e-4 -55.292-0.0011-110.58 62.332 0 124.66 0"/> </g> <g fill="#fff"> <path d="m834.17 1105.2-0.85852 7.146-107.69 10.685 3.288-48.696 96.213-2.7971-12.224 21.268 21.267 12.394"/> </g> <g fill="#000"> <path d="m815.72 1092.6-8.5696-4.9053q-5.1148 3.4431-10.229 6.8865 6.2978 2.3799 12.596 4.76l6.2035-6.7412"/> <path d="m805.59 1092.8-46.352-4.4421q-0.80734 10.022-1.6147 20.043 24.089-6.4241 48.178-12.848l-0.21165-2.7522"/> <path d="m818.42 1152.5h-1e-4 1e-4"/> <path d="m842.97 1126.5-4.4489-0.5423q-13.378-2.8674-20.907-13.668-7.5184-10.872-5.224-24.929 2.8672-13.378 13.668-20.907 3.49-2.4106 7.5309-3.8747l4.1372-1.1904q4.2543-0.9351 8.8114-0.7012 13.964 1.1111 22.746 10.9 8.7817 9.7884 8.3765 23.791-1.1108 13.964-10.899 22.746-9.7885 8.782-23.791 8.3765"/> </g> <g fill="#ffb28c"> <path d="m827.74 1121.8q-5.7382-8.6428-8.123-14.096-2.973-7.4402-2.9536-8.9307-0.5955-2.9785-0.54145-5.9595 0.01001-0.4033 0.03175-0.8068 0.13976-2.5777 0.7652-5.1575 6e-4 -0.0188 0.00164-0.0383 0.08376-1.5457 3.335-8.9168 3.2754-6.2908 7.5987-12.586l-7e-4 -0.0053q-0.91044 0.5407-1.7873 1.1464-10.801 7.5288-13.668 20.907-0.36469 2.2346-0.48157 4.3884-0.61774 11.396 5.7056 20.54 4.164 5.9736 10.117 9.5202z"/> </g> <g fill="#222b32"> <path d="m751.24 1161.9h-1e-4q120.24 0.7173 1e-4 0"/> </g> <g fill="#ffb28c"> <path d="m813.3 1097.7-0.57626-0.3855q-1.7911-1.1565-3.0213-2.3201-0.38943-0.3884-0.65403-0.7783l-0.2257-0.3904-0.14785-0.3913-0.06215-0.3928-0.0014-0.0706 0.04334-0.3884 0.12546-0.3892 0.19974-0.3904q0.23706-0.3908 0.5932-0.7832 0.86066-0.9809 3.3272-2.7588l0.3998 9.439"/> <path d="m813.96 1185.9h-1.4e-4v3e-4l1.4e-4 -3e-4"/> </g> <g fill="#ffd374"> <path d="m765.8 1085-2.0591 30.607q-14.639 92.497-85.668 147.95-71.52 55.412-168.44 44.939-92.497-14.639-147.95-85.668-17.769-22.96-29.273-50.034l-9.6684-27.836q-7.9676-28.73-8.0572-59.962 2.4188-95.848 66.065-159.49 63.646-63.646 159.49-66.065 95.849 2.4188 159.49 66.065 63.646 63.646 66.065 159.49"/> </g> <g fill="#fff"> <path d="m509.34 936.61 71.378 1e-3q-3e-5 45.573-3e-5 91.146-35.689 2e-4 -71.379 7e-4 0-45.574 7e-5 -91.148"/> <path d="m391.49 1025.2 71.378 1e-3v91.146l-71.378 0.0012v-91.149"/> <path d="m518.31 1165.8 71.379 1e-3 -4e-5 91.146-71.378 1e-3v-91.148"/> <path d="m631.94 1132.4-0.76326-34.259-0.76335-34.258q43.746-0.9751 87.492-1.9507 0.76424 34.259 1.5284 68.517-43.747 0.9755-87.494 1.9509"/> </g> <g fill="#000"> <path d="m898.43 1093.1-0.3201 2.6628q-1.7022 8.0086-8.158 12.525-6.4984 4.51-14.912 3.1514-8.0086-1.7024-12.525-8.158-1.4462-2.0859-2.3264-4.5026l-0.71649-2.4747q-0.56396-2.5449-0.42856-5.2722 0.6507-8.3574 6.4994-13.622 5.8487-5.2651 14.228-5.0366 8.3574 0.6506 13.622 6.4993 5.265 5.8486 5.0366 14.228"/> </g> <g fill="#ff9d81"> <path d="m374.38 1135.9 1.3096-0.1508q7.5951-0.9615 9.6746-0.087 13.166 10.403 17.868 10.62 0.30011 0.0635 1.6331-0.061l3.8599-0.7525q6.301-0.5891 7.8242-1.1111 4.0649-1.0541 8.4847-3.5646 4.477-2.6148 5.5297-4.2891 1.0942-1.8508-0.79156-2.2143-1.7514-0.1146-3.2044 0.4162-1.2254 0.2827-8.1209 3.169-1.6728 0.6455-2.9266 0.9516-2.2087 0.5476-4.5231 0.4707 5.1335-3.8894 7.1213-6.2959 0.49146-0.5417 1.5429-1.9687l3.1575-4.6839 2.6271-3.5068q1.5552-2.44-0.83581-4.0386-1.9534-0.4228-3.508 1.2859-0.3978-0.0596-7.4932 9.2188-2.0325 2.2548-4.0682 3.4628l9.2887-14.367q1.0557-2.0947 0.9364-2.6367 0.00593-0.8518-0.57354-1.2065-1.8437-0.8157-4.7794 2.4809-2.5928 2.9131-8.0942 12.482 6.1611-8.7796 6.9791-11.266 0.98871-2.5644 0.74835-3.1606-0.15661-0.8484-1.0538-0.7088-1.6759 0.3812-3.1614 1.7569-0.92357 0.7815-2.394 2.9617l-5.2928 5.2395q-9.951-5.0865-13.452-5.3006-1.4521-0.1521-2.6654 0.0034-1.8011 0.2573-3.4003 0.7747l-7.8143 0.7751-0.43207 15.302z"/> </g> <g fill="#6f9c88"> <path d="m276.41 1142.6 4.8e-4 -12.987 5e-4 -12.986q56.131 0 112.26 0 4.9e-4 12.986 9.3e-4 25.973-56.132 0-112.26 2e-4"/> </g> <g fill="#ff9d81"> <path d="m370.5 1010.5 1.284 0.2981q7.4377 1.8144 9.6028 1.1809 14.258-8.8476 18.954-8.531 0.30536-0.02903 1.6157 0.2454l3.7499 1.1843q6.194 1.298 7.6484 1.9887 3.9196 1.5071 8.0271 4.5016 4.1525 3.1045 5.009 4.887 0.87794 1.9626-1.0368 2.1104-1.7531-0.08426-3.1368-0.77566-1.1855-0.41953-7.7104-4.0674-1.589-0.83044-2.8002-1.2763-2.1327-0.794-4.4409-0.9794 4.6608 4.4452 6.3636 7.061 0.42694 0.5935 1.3102 2.1303l2.6075 5.0108 2.2138 3.782q1.2692 2.5998-1.2874 3.9177-1.9887 0.1992-3.34-1.6743-0.40204 0.0141-6.4025-10.007-1.7645-2.4703-3.6503-3.9004l7.6041 15.325q0.81201 2.2007 0.6322 2.7258-0.09052 0.8467-0.70636 1.1338-1.9241 0.6018-4.4681-3.0056-2.2468-3.1877-6.6307-13.317 5.1286 9.4204 5.66 11.983 0.69232 2.6599 0.38611 3.2251-0.25159 0.8252-1.1272 0.585-1.622-0.5681-2.9425-2.103-0.82922-0.8809-2.0436-3.2134l-4.6663-5.8045q-10.462 3.928-13.965 3.7449-1.46-0.0132-2.6479-0.3049-1.7604-0.4595-3.291-1.1543l-7.6764-1.6541 1.3015-15.252z"/> </g> <g fill="#6f9c88"> <path d="m275.85 1032.1 0.0011-24.04q55.787 1.5e-4 111.57 3e-4 4.2e-4 12.02 8.5e-4 24.04-55.788 0-111.58 0"/> </g> <g fill="#ff9d81"> <path d="m602.07 930.84-0.30263 1.0584q-1.8261 6.1282-1.3887 7.961 6.7812 12.265 6.3195 16.17 0.01155 0.2559-0.27255 1.3375l-1.1457 3.0783q-1.3429 5.1123-1.9801 6.2967-1.4222 3.2061-4.0928 6.5066-2.764 3.3335-4.2869 3.9732-1.6741 0.64975-1.7169-0.95376 0.144-1.4588 0.7789-2.5841 0.39983-0.97119 3.7169-6.2609 0.75965-1.2904 1.1824-2.2821 0.7519-1.7457 1.0037-3.6633-3.9039 3.7012-6.1576 5.0116-0.51305 0.3313-1.8322 1.0033l-4.2894 1.9649-3.2478 1.6876q-2.222 0.94945-3.2142-1.2387-0.08239-1.6672 1.5372-2.7157 0.0051-0.33605 8.6168-4.9203 2.135-1.3679 3.4073-2.8812l-13.103 5.6992q-1.8698 0.58495-2.3003 0.41285-0.7025-0.1111-0.9159-0.63685-0.4214-1.6304 2.6948-3.6008 2.7536-1.7402 11.387-4.9715-8.0737 3.8824-10.234 4.2179-2.2478 0.4657-2.7064 0.1864-0.6778-0.24436-0.44056-0.96486 0.54206-1.3291 1.878-2.366 0.76974-0.65465 2.7663-1.5697l5.0382-3.6487q-2.8369-8.8925-2.537-11.807 0.0724-1.2173 0.36577-2.196 0.45727-1.4491 1.1014-2.6968l1.7021-6.334 12.669 1.7267z"/> </g> <g fill="#222b32"> <path d="m583.4 824.52 24.04 9.7e-4q5e-5 55.787 0 111.57-12.02 5e-4 -24.04 1e-3 0-55.788-5e-5 -111.58"/> </g> <g fill="#fff"> <path d="m485.81 940.37 71.378 1e-3 -6e-5 91.146-71.378 1e-3 6e-5 -91.148"/> <path d="m618.87 1117-1.5268-68.517 87.492-1.9507 1.5287 68.517-87.494 1.9509"/> </g> <g fill="#ff9d81"> <path d="m710.29 1031.3-1.0988 0.0711q-6.3762 0.4826-8.0742-0.3342-10.545-9.232-14.459-9.6102-0.24754-0.06545-1.3648-0.0177l-3.2514 0.46544q-5.281 0.22666-6.5735 0.5979-3.4351 0.70876-7.2276 2.6175-3.8445 1.9929-4.7929 3.3452-0.99063 1.4983 0.5672 1.8807 1.4561 0.1692 2.6906-0.2124 1.0339-0.1846 6.9076-2.3023 1.4224-0.468 2.4812-0.6711 1.8656-0.3638 3.7928-0.2024-4.4457 3.0288-6.2049 4.9529-0.4328 0.4311-1.3699 1.5773l-2.831 3.7745-2.3386 2.8152q-1.3999 1.9697 0.52757 3.4038 1.6116 0.4348 2.9802-0.9251 0.3293 0.0664 6.6381-7.3755 1.7901-1.7954 3.5393-2.7175l-8.3523 11.594q-0.96863 1.7031-0.89203 2.1604-0.04064 0.7102 0.42779 1.0305 1.5037 0.7578 4.0912-1.8689 2.2853-2.321 7.2764-10.072-5.5083 7.0649-6.2951 9.1047-0.93254 2.0979-0.7572 2.6052 0.09506 0.7144 0.84926 0.6355 1.4139-0.2475 2.7111-1.3325 0.8032-0.6133 2.1214-2.3701l4.6355-4.1482q8.087 4.6614 10.998 4.9871 1.205 0.188 2.2236 0.1091 1.5133-0.1392 2.8692-0.5034l6.551-0.3181 1.0037-12.747z"/> <path d="m707.11 1153.2-1.0586-0.3027q-6.1282-1.8262-7.961-1.3889-12.265 6.7815-16.17 6.3198-0.2559 0.0115-1.3376-0.2727l-3.0781-1.1455q-5.1124-1.343-6.2968-1.9802-3.2059-1.4224-6.5065-4.0928-3.3334-2.7639-3.9731-4.2869-0.6498-1.6741 0.95375-1.7168 1.4588 0.1441 2.584 0.7786 0.9712 0.4001 6.2607 3.717 1.2905 0.7598 2.2822 1.1824 1.7456 0.7519 3.6633 1.0037-3.7011-3.9038-5.0116-6.1575-0.3314-0.5132-1.0034-1.8323l-1.9646-4.2895-1.6875-3.2476q-0.94953-2.2222 1.2386-3.2141 1.6671-0.0825 2.7156 1.5369 0.33596 0.0051 4.9201 8.6169 1.368 2.1348 2.8812 3.4072l-5.6991-13.103q-0.58485-1.8697-0.41272-2.3003 0.11117-0.7024 0.63687-0.9158 1.6303-0.4214 3.6007 2.6946 1.7402 2.7534 4.9714 11.387-3.8823-8.0738-4.2178-10.234-0.46555-2.2478-0.18635-2.7063 0.24445-0.6777 0.9649-0.4404 1.3291 0.542 2.3658 1.8777 0.6547 0.7698 1.5698 2.7664l3.6487 5.038q8.8925-2.8366 11.807-2.5368 1.2173 0.0723 2.196 0.3657 1.4491 0.4573 2.6967 1.1016l6.334 1.7019-1.7267 12.669z"/> </g> <g fill="#b76056"> <path d="m813.99 1023.6-4.9e-4 12.987-5.5e-4 12.987q-56.131 0-112.26 0-4.7e-4 -12.986-9.2e-4 -25.973 56.132 0 112.26-1.5e-4"/> <path d="m814.55 1134.1-5.6e-4 12.02-4.4e-4 12.02q-55.787 0-111.57-2e-4 -6e-4 -12.02-9e-4 -24.04 55.788 0 111.58 0"/> </g> <g fill="#ff9d81"> <path d="m482.52 956.6 0.86713 0.2273 0.86707 0.22729-1.7342-0.45459"/> <path d="m489.72 1233.4 0.17877-1.0864q1.1074-6.2976 0.46148-8.0679-8.1503-11.402-8.1419-15.334-0.0409-0.2527 0.11664-1.3598l0.78289-3.19q0.74494-5.2332 1.2415-6.4824 1.043-3.3486 3.3155-6.9351 2.3612-3.6299 3.8003-4.4407 1.5883-0.8388 1.8156 0.7493 0.02514 1.4656-0.47602 2.6568-0.28509 1.0107-2.9702 6.6477-0.60578 1.3694-0.91181 2.403-0.54554 1.8208-0.57446 3.7542 3.4512-4.126 5.5389-5.6875 0.47162-0.3882 1.7045-1.208l4.0346-2.4461 3.0314-2.0505q2.0978-1.1995 3.3356 0.8596 0.27404 1.6467-1.2138 2.8748 0.03357 0.3342-7.9925 5.8808-1.9627 1.6048-3.0525 3.2547l12.359-7.1717q1.7898-0.7964 2.2373-0.6753 0.71075 0.0296 0.98345 0.5271 0.60652 1.5711-2.262 3.8875-2.5346 2.0459-10.738 6.2507 7.5723-4.7869 9.6798-5.3691 2.1791-0.7217 2.6669-0.4973 0.7016 0.165 0.54883 0.9075-0.38532 1.3825-1.5928 2.5666-0.68902 0.739-2.5668 1.8782l-4.584 4.2053q3.8434 8.5059 3.8812 11.435 0.0686 1.2178-0.10993 2.2234-0.28729 1.4925-0.78302 2.8059l-0.9608 6.4883-12.784-0.2549z"/> <path d="m611.29 1242.2-0.197-1.083q-1.2147-6.2781-0.59926-8.0588 7.9546-11.539 7.8789-15.47 0.03662-0.2537-0.13985-1.3579l-0.8374-3.1761q-0.83367-5.2194-1.3513-6.4609-1.1-3.3301-3.433-6.877-2.423-3.5893-3.8755-4.3755-1.6021-0.8115-1.8024 0.7803-1e-4 1.4656 0.5209 2.648 0.30246 1.0058 3.0834 6.5959 0.62897 1.3589 0.95215 2.3875 0.5766 1.8108 0.63865 3.7439-3.521-4.0669-5.635-5.5926-0.47795-0.3801-1.7246-1.1787l-4.0754-2.3767-3.0661-1.9988q-2.118-1.1635-3.3203 0.9163-0.2461 1.6509 1.2625 2.8535-0.028 0.335 8.0912 5.7437 1.9902 1.5713 3.1076 3.2024l-12.48-6.9602q-1.8031-0.7659-2.2486-0.637-0.71 0.0415-0.97404 0.5437-0.57966 1.581 2.3276 3.8481 2.5692 2.0027 10.843 6.0674-7.6528-4.6575-9.7698-5.2038-2.1912-0.6844-2.6751-0.4517-0.69849 0.1768-0.53321 0.917 0.40867 1.376 1.6361 2.5391 0.70166 0.727 2.5987 1.8342l4.6549 4.1265q-3.6975 8.5703-3.6856 11.5-0.04763 1.2185 0.14804 2.2212 0.31256 1.4871 0.83081 2.792l1.071 6.4707 12.777-0.4727z"/> </g> <g fill="#394458"> <path d="m617.45 1341.1-25.973-1e-3q0-56.131 1e-4 -112.26 12.987-5e-4 25.973-1e-3 -1e-4 56.132-1e-4 112.26"/> <path d="m507 1341.7-24.04-1e-3q0-55.787 5e-5 -111.57 12.02-4e-4 24.04-9e-4 -5e-5 55.788-5e-5 111.58"/> </g> <g fill="#000"> <path d="m461.61 940.37-16.003 7.4912-12.143-25.939 16.003-7.4914 12.143 25.939zm-8.0136 6.9624c-0.3338-0.71315-0.03203-1.5598 0.67462-1.8908 0.70691-0.33068 1.5502-0.02023 1.8841 0.69287 0.3338 0.71314 0.03241 1.5603-0.67438 1.8915-0.70691 0.3298-1.5505 0.0193-1.8843-0.6936m10.869-3.659 0.0022-9.8e-4 -14.553-31.086h-7e-5l-0.00299-0.00659-3.7e-4 4.9e-4c-0.33581-0.70837-1.1805-1.0132-1.8915-0.6803-0.00513 0.0022-0.00903 0.00466-0.01361 0.00672l-1.8e-4 -6.2e-4 -2.8992 1.3576-8.4581 3.9595-4.202 1.9673c-0.7099 0.33265-1.0164 1.1764-0.68817 1.8876l-1.8e-4 2.6e-4 14.556 31.092 0.00207-7.5e-4c0.00574 0.0137 0.0105 0.0276 0.01715 0.0415 0.3255 0.69546 1.1742 0.9861 1.8954 0.64834 0.01068-0.00514 0.02045-0.01134 0.03082-0.01661l9.2e-4 0.00184 15.543-7.2761c0.70166-0.32849 1.0088-1.1596 0.68322-1.8551-0.00622-0.01379-0.01427-0.02674-0.02093-0.03979"/> </g> <g fill="#fff"> <path d="m449.47 914.43 12.143 25.939-16.003 7.4912-12.143-25.939z"/> </g> <g fill="#a19a89"> <path d="m454.27 945.44c0.70691-0.33068 1.5502-0.02023 1.8841 0.69287 0.3338 0.71314 0.03241 1.5603-0.67438 1.8915-0.70691 0.3298-1.5505 0.0193-1.8843-0.6936-0.3338-0.71315-0.03203-1.5598 0.67462-1.8908z"/> </g> <g fill="#000"> <path d="m504.58 1148.1-0.13616-3.2232-1.7763 0.6302 1.9117 2.5923z"/> </g> <g fill="#fff"> <path d="m504.6 1145-3.0121-12.904-4.5921 1.6889 5.5922 11.901 0.01185 0.0151 1.9854-0.6963z"/> </g> <g fill="#000"> <path d="m510.47 1145.5-0.13611-3.2234-1.7765 0.6299 1.9119 2.5926z"/> </g> <g fill="#fff"> <path d="m510.49 1142.4-3.0117-12.904-4.5923 1.6892 5.592 11.901 0.01227 0.0151 1.9853-0.6963z"/> </g> <g fill="#000"> <path d="m516.7 1143.5-0.1362-3.2232-1.7762 0.6302 1.9116 2.592z"/> </g> <g fill="#fff"> <path d="m516.72 1140.4-3.0122-12.904-4.5923 1.6892 5.5923 11.901 0.01204 0.0149 1.9852-0.696z"/> <path d="m488.05 1096.5-2.6619-5.303-2.8246 0.7901-0.00903 0.0046 1.5724 6.3215 3.9191-1.8115z"/> <path d="m484.98 1091.4-1.6968-4.294-1.8234 0.6426 1.4127 4.322 2.1064-0.6702z"/> <path d="m493.94 1093.9-2.6621-5.3027-2.8247 0.79-0.00898 0.0046 1.5726 6.3216 3.9194-1.8113z"/> <path d="m490.87 1088.9-1.6974-4.294-1.8234 0.6429 1.413 4.322 2.1067-0.6704z"/> <path d="m500.17 1091.9-2.6623-5.303-2.8245 0.7901-0.00897 0.0051 1.5723 6.321 3.9192-1.8113z"/> <path d="m497.1 1086.8-1.6974-4.2944-1.8231 0.6431 1.4128 4.3218 2.1064-0.67z"/> </g> <g fill="#f6f885"> <path d="m501.82 1132.5-13.477-36.46-4.4478 1.644-0.28456 0.1053 0.02046 0.0603 13.452 36.394 4.7343-1.7422z"/> </g> <g fill="#fa5422"> <path d="m507.71 1129.9-13.477-36.46-4.4481 1.6445-0.28455 0.105 0.02051 0.0606 13.452 36.393 4.7343-1.7422z"/> </g> <g fill="#00eaff"> <path d="m513.94 1127.9-13.477-36.46-4.4479 1.6445-0.28479 0.105 0.02094 0.0608 13.452 36.393 4.7342-1.7422z"/> </g> <g fill="#000"> <path d="m522.58 1140.9-0.13642-3.2236-1.7762 0.6299 1.9118 2.5927z"/> </g> <g fill="#fff"> <path d="m522.61 1137.8-3.0121-12.904-4.5922 1.6892 5.5923 11.901 0.01207 0.0149 1.9851-0.696z"/> <path d="m506.06 1089.3-2.6623-5.3034-2.8244 0.791-0.00917 0.0044 1.5728 6.3213 3.919-1.8113z"/> <path d="m502.99 1084.3-1.697-4.2939-1.8234 0.6426 1.4128 4.322 2.1064-0.6704z"/> </g> <g fill="#000"> <path d="m519.83 1125.3-13.477-36.46-4.448 1.6441-0.28443 0.1052 0.02057 0.0608 13.452 36.393 4.7344-1.742z"/> </g> <g fill="#222b32"> <path d="m535.84 1085.7 43.828 2.4768q-0.21954 3.8838-0.43894 7.7676-21.914-1.2385-43.828-2.4766 0.21945-3.884 0.4389-7.7678"/> </g> <g fill="#637079"> <path d="m538.52 1094.4 38.858 1.9135q-0.89593 18.195-1.7918 36.39-19.429-0.9568-38.858-1.9133 0.89585-18.195 1.7918-36.39"/> </g> <g fill="#3c464f"> <path d="m533.67 1130.3c-0.0579 1.2439 0.90337 2.299 2.1481 2.3564l39.423 1.8272c1.2446 0.0578 2.2994-0.9038 2.3578-2.1477l1.7743-38.297-43.929-2.0361-1.7745 38.297zm35.305-31.1c0.0577-1.2439 1.1127-2.2059 2.3573-2.1482l3.379 0.1567c1.2447 0.0581 2.2061 1.1128 2.1482 2.3572l-0.052 1.1259c-0.0578 1.2449-1.1128 2.2066-2.3569 2.1487l-3.3794-0.1565c-1.2446-0.0576-2.2064-1.113-2.1487-2.3574l0.0524-1.1264zm-0.41734 9.0117c0.05764-1.2451 1.1126-2.2066 2.3572-2.1485l3.3788 0.1563c1.2446 0.0578 2.2062 1.113 2.1488 2.3574l-0.05245 1.1262c-0.05765 1.2442-1.1126 2.2056-2.3573 2.148l-3.379-0.1568c-1.2446-0.0576-2.2062-1.1123-2.1485-2.3567l0.0525-1.1259zm-0.41746 9.0105c0.0575-1.2442 1.1125-2.2058 2.3571-2.1482l3.3791 0.1567c1.2446 0.0576 2.2062 1.1123 2.1485 2.3572l-0.4698 10.137c-0.0577 1.2444-1.1124 2.2061-2.3571 2.1485l-3.379-0.1568c-1.2446-0.0579-2.2062-1.1125-2.1488-2.3574l0.47-10.137zm-9.3029-18.492c0.05825-1.2446 1.1127-2.2056 2.3573-2.1484l3.3793 0.1574c1.2447 0.0571 2.2059 1.1123 2.1483 2.3567l-0.0521 1.1265c-0.0575 1.2446-1.1125 2.206-2.3571 2.1484l-3.3793-0.157c-1.2446-0.0576-2.206-1.1123-2.1485-2.3574l0.0521-1.1262zm-0.4174 9.0115c0.0577-1.2444 1.1127-2.2061 2.3573-2.1482l3.3794 0.1562c1.2446 0.0581 2.2059 1.1131 2.1482 2.3579l-0.05183 1.126c-0.05823 1.2437-1.113 2.2053-2.3576 2.1477l-3.3794-0.1562c-1.2445-0.0584-2.2059-1.1131-2.148-2.357l0.0519-1.1264zm-0.41736 9.0107c0.05746-1.2446 1.1125-2.2061 2.3571-2.1484l3.3793 0.1569c1.2446 0.0577 2.2059 1.1124 2.1485 2.3572l-0.0522 1.1265c-0.058 1.2446-1.1124 2.206-2.357 2.1484l-3.3792-0.157c-1.2447-0.0576-2.2063-1.1122-2.1485-2.3571l0.05204-1.1265zm-0.4176 9.011c0.05776-1.2446 1.1125-2.2058 2.3572-2.1487l3.3792 0.1567c1.2447 0.0577 2.206 1.1131 2.1486 2.3575l-0.0522 1.1264c-0.05774 1.2449-1.1124 2.2058-2.3571 2.148l-3.3792-0.1565c-1.2447-0.0571-2.2063-1.1126-2.1482-2.3567l0.05174-1.1267zm-8.8851-27.503c0.05853-1.2439 1.1131-2.2054 2.3578-2.1477l3.3794 0.1567c1.2446 0.0579 2.2054 1.1121 2.1476 2.3562l-0.0522 1.1267c-0.0575 1.2441-1.1123 2.2058-2.3569 2.1487l-3.3793-0.1568c-1.2446-0.0576-2.2059-1.113-2.1482-2.3571l0.05187-1.1267zm-0.41712 9.0117c0.05799-1.2449 1.1125-2.2066 2.3571-2.1487l3.3793 0.1565c1.2447 0.0583 2.2057 1.1125 2.1483 2.3574l-0.0521 1.126c-0.0582 1.2444-1.1124 2.2065-2.3571 2.1489l-3.3792-0.1572c-1.2447-0.0574-2.206-1.1126-2.1483-2.3569l0.05215-1.126zm-0.4176 9.0112c0.05775-1.2449 1.1128-2.2065 2.3573-2.1484l3.3794 0.1562c1.2446 0.0579 2.2054 1.1123 2.148 2.3567l-0.0521 1.1267c-0.0577 1.2444-1.1122 2.2066-2.3568 2.1487l-3.3794-0.1563c-1.2446-0.0581-2.206-1.1127-2.1482-2.3576l0.05185-1.126zm-0.4173 9.0105c0.05735-1.2444 1.1124-2.2058 2.357-2.1484l3.3794 0.157c1.2446 0.0576 2.2057 1.1118 2.148 2.3562l-0.0519 1.1264c-0.058 1.2451-1.1124 2.207-2.357 2.1494l-3.3794-0.1567c-1.2443-0.0576-2.2062-1.1126-2.1482-2.3574l0.05215-1.1265zm-8.885-27.503c0.0582-1.2439 1.1131-2.2053 2.3578-2.1477l3.3787 0.1567c1.2446 0.0576 2.2064 1.1126 2.1482 2.3567l-0.0524 1.1265c-0.0577 1.2446-1.1124 2.206-2.357 2.1482l-3.3791-0.1565c-1.2446-0.0576-2.2062-1.1123-2.1488-2.3574l0.05245-1.1265zm-0.41744 9.0117c0.05774-1.2449 1.1127-2.2058 2.3571-2.1489l3.3792 0.1572c1.2447 0.0574 2.2063 1.1126 2.1486 2.3569l-0.05235 1.1265c-0.05776 1.2444-1.1127 2.2061-2.3573 2.1482l-3.3791-0.1565c-1.2446-0.0578-2.2062-1.1125-2.1482-2.3569l0.05206-1.1265zm-0.41736 9.0112c0.0575-1.2446 1.1125-2.206 2.3569-2.1489l3.3792 0.1567c1.2446 0.0582 2.2062 1.1131 2.1482 2.3577l-0.0519 1.1262c-0.0577 1.2449-1.1127 2.2066-2.3573 2.1482l-3.3793-0.1562c-1.2442-0.0581-2.2056-1.1128-2.1483-2.3572l0.05236-1.1265zm-0.41754 9.0105c0.05744-1.2443 1.1121-2.206 2.3567-2.1481l3.3794 0.1564c1.2446 0.0579 2.2062 1.1126 2.1484 2.3575l-0.0521 1.1259c-0.0575 1.2449-1.1125 2.2066-2.3571 2.1487l-3.3793-0.1565c-1.2444-0.0576-2.2059-1.113-2.1485-2.3574l0.05243-1.1265z"/> </g> <g fill="#000"> <path d="m572.25 1101.6 1.1262 0.0525 0.05235-1.1265 1.1263 0.0518 0.05243-1.126-1.1267-0.0525 0.0524-1.1264-1.1263-0.052-0.0521 1.1262-1.1265-0.052-0.05212 1.1267 1.1262 0.0518z"/> <path d="m570.23 1120.7 3.379 0.1567-0.05183 1.1265-3.3793-0.1565 0.05217-1.1267z"/> <path d="m570.81 1108.3 3.3794 0.1567-0.0524 1.1265-3.3793-0.1567 0.05231-1.1265z"/> <path d="m570.13 1123 3.3794 0.1567-0.05235 1.126-3.3794-0.1565 0.0524-1.1262z"/> </g> <g fill="#3c464f"> <path d="m534.94 1076.6-0.70413 14.3 0.0905 0.0147 46.582 2.2834 0.70416-14.3-46.674-2.2878"/> </g> <g fill="#a6d8ff"> <path d="m537.58 1079-0.4781 9.708 0.07986 0.0149 41.087 2.0122 0.47809-9.708-41.167-2.0171"/> </g> <g fill="#7d8b96"> <path d="m573.5 1098.3-0.05103 1.0971c-3.4e-4 0.0076 0.00246 0.0154 0.00766 0.021 0.0052 0.0059 0.01255 0.0095 0.0203 0.0098l6e-5 2e-4 1.0973 0.0508-0.0497 1.0671-1.0968-0.0505c-0.0163-7e-4 -0.03 0.0117-0.03074 0.0281l-0.05102 1.0972-1.0674-0.0498 0.0508-1.097c3.4e-4 -0.0078-0.0024-0.0156-0.00765-0.0212-0.00525-0.0059-0.01252-0.0093-0.02035-0.0095h-1e-4l-1.0969-0.0506 0.0495-1.0676 1.0971 0.0505c0.0162 8e-4 0.0301-0.0119 0.0308-0.0283l0.0508-1.0964 1.0674 0.0491zm1.2164-1.1314-0.0028-2e-4 -0.0028 2e-4 -3.379-0.157c-1.2609-0.0583-2.3298 0.9165-2.3882 2.1765l-0.0524 1.1265c-0.0584 1.2583 0.91254 2.3259 2.1702 2.3877l1e-4 2e-4h0.0033l0.0033 5e-4 3.3793 0.1563c1.2604 0.0583 2.3291-0.9158 2.3876-2.1768l0.0521-1.126c0.0586-1.2587-0.9125-2.3261-2.1706-2.3879z"/> </g> <g fill="#fff"> <path d="m635.18 942.84q6.3288-0.4956 11.264 3.4602 4.8742 4.1258 5.5698 10.466 0.5229 6.3578-3.4611 11.329-4.167 4.8886-10.456 5.5612-6.4314 0.5018-11.33-3.4594-4.8717-4.1283-5.5645-10.468-0.51963-6.3581 3.4667-11.327 4.1699-4.8865 10.459-5.5558z"/> </g> <g fill="#744619"> <path d="m634.95 945.45q5.2601-0.60486 9.4938 2.5423 4.1876 3.2916 4.9597 8.5551 0.62845 5.2832-2.5415 9.5472-3.325 4.201-8.5464 4.9523-5.3451 0.61327-9.5486-2.5399-4.186-3.2932-4.9556-8.557-0.62596-5.2835 2.5462-9.5463 3.3275-4.1992 8.5488-4.9479z"/> </g> <g fill="#fff"> <path d="m625.93 941.11 1.8859 2.6974 1.8858 2.6975q-2.1348 1.4927-4.2698 2.9852-1.886-2.6975-3.7718-5.3949 2.1349-1.4927 4.2699-2.9853"/> <path d="m406.67 1171.5q6.3289-0.4956 11.264 3.4602 4.8742 4.1257 5.5698 10.466 0.52284 6.3577-3.4611 11.329-4.167 4.8884-10.456 5.561-6.4314 0.5017-11.33-3.4594-4.8716-4.1282-5.5644-10.468-0.51966-6.3584 3.4666-11.327 4.1699-4.8865 10.459-5.5559z"/> </g> <g fill="#d24900"> <path d="m406.44 1174.1q5.26-0.605 9.4938 2.5422 4.1876 3.2917 4.9597 8.5552 0.62842 5.2832-2.5415 9.5471-3.325 4.2007-8.5463 4.9521-5.3451 0.6133-9.5486-2.5398-4.186-3.2932-4.9556-8.5568-0.62598-5.2835 2.5462-9.5464 3.3275-4.1993 8.5489-4.9478z"/> </g> <g fill="#fff"> <path d="m397.42 1169.7 1.886 2.6975 1.8859 2.6975q-2.1348 1.4927-4.2698 2.9851-1.8859-2.6975-3.7718-5.3947 2.135-1.4927 4.2698-2.9854"/> <path d="m700.37 1178.1q6.3288-0.4956 11.264 3.4602 4.8741 4.1257 5.5697 10.466 0.5229 6.3579-3.4611 11.328-4.167 4.8884-10.456 5.561-6.4314 0.502-11.33-3.4592-4.8716-4.1279-5.5644-10.468-0.51966-6.3584 3.4666-11.327 4.1699-4.8865 10.459-5.5559z"/> </g> <g fill="#000"> <path d="m700.14 1180.7q5.26-0.605 9.4938 2.5422 4.1876 3.2918 4.9597 8.5552 0.6284 5.2832-2.5415 9.5471-3.3251 4.2007-8.5465 4.9519-5.3451 0.6133-9.5486-2.5395-4.1859-3.293-4.9555-8.5569-0.62604-5.2835 2.5462-9.5464 3.3275-4.1992 8.5488-4.9478z"/> </g> <g fill="#fff"> <path d="m691.12 1176.3 1.8859 2.6975 1.8859 2.6976q-2.1349 1.4926-4.2698 2.9851-1.886-2.6976-3.7718-5.3948 2.135-1.4927 4.2698-2.9854"/> <path d="m416.55 972.49q6.3288-0.4956 11.264 3.4602 4.8742 4.1258 5.5698 10.466 0.52289 6.3578-3.461 11.329-4.1671 4.8886-10.456 5.5612-6.4314 0.5017-11.33-3.4595-4.8716-4.1282-5.5644-10.468-0.51973-6.3582 3.4666-11.327 4.1699-4.8865 10.459-5.5558z"/> </g> <g fill="#744619"> <path d="m416.32 975.1q5.26-0.6049 9.4938 2.5423 4.1876 3.2916 4.9598 8.5551 0.62843 5.2832-2.5415 9.5472-3.325 4.2008-8.5464 4.9522-5.3451 0.61326-9.5486-2.5398-4.186-3.2931-4.9556-8.5571-0.62604-5.2833 2.5461-9.5463 3.3275-4.1991 8.5488-4.9479z"/> </g> <g fill="#fff"> <path d="m407.3 970.76 1.886 2.6974 1.8859 2.6974q-2.1348 1.4928-4.2698 2.9854-1.8859-2.6976-3.7718-5.3949 2.135-1.4927 4.2698-2.9852"/> <path d="m423.66 935.18v2.3e-4 -2.3e-4 2.3e-4q0-1e-4 0-2.3e-4"/> </g> <g fill="#000"> <path d="m497.23 1047.9-0.11114-2.6284-1.4482 0.5137 1.5587 2.1137z"/> </g> <g fill="#fff"> <path d="m497.25 1045.4-2.4553-10.521-3.7443 1.3772 4.5591 9.7034 0.00989 0.0122 1.6186-0.5676z"/> <path d="m483.75 1005.9-2.1705-4.3242-2.3028 0.6449-0.0075 0.00356 1.2822 5.154 3.1953-1.4765z"/> <path d="m481.25 1001.8-1.3835-3.5008-1.4868 0.52368 1.1518 3.5241 1.7175-0.5465z"/> </g> <g fill="#000"> <path d="m494.98 1035.2-10.987-29.727-3.6267 1.3403-0.23198 0.0857 0.01678 0.04954 10.966 29.673 3.8602-1.4201z"/> <path d="m457.36 1171.8-0.11115-2.6285-1.4482 0.5137 1.5587 2.114z"/> </g> <g fill="#fff"> <path d="m457.38 1169.3-2.4554-10.521-3.7443 1.3772 4.5591 9.7033 0.00983 0.0122 1.6186-0.5673z"/> <path d="m443.88 1129.8-2.1705-4.3242-2.3028 0.6448-0.00751 0.0037 1.2822 5.154 3.1954-1.4766z"/> <path d="m441.38 1125.7-1.3834-3.501-1.4868 0.5237 1.1518 3.5242 1.7175-0.5467z"/> </g> <g fill="#1b90eb"> <path d="m455.11 1159.1-10.987-29.728-3.6267 1.3403-0.23198 0.0857 0.01678 0.0496 10.966 29.673 3.8602-1.4202z"/> </g> <g fill="#000"> <path d="m745.74 1116.6-0.13647-3.2236-1.7762 0.6299 1.9118 2.5925z"/> </g> <g fill="#fff"> <path d="m745.76 1113.5-3.0121-12.904-4.5923 1.6892 5.5923 11.901 0.01206 0.0149 1.9851-0.696z"/> <path d="m729.21 1065-2.6623-5.3032-2.8244 0.7908-0.00922 0.0044 1.5729 6.3213 3.919-1.8113z"/> <path d="m726.14 1059.9-1.697-4.2939-1.8234 0.6426 1.4126 4.3222 2.1066-0.6704z"/> </g> <g fill="#3c464f"> <path d="m742.98 1101-13.477-36.46-4.448 1.6443-0.28443 0.105 0.02056 0.061 13.452 36.393 4.7344-1.742z"/> </g> <g fill="#000"> <path d="m652.54 1265.6-0.13642-3.2234-1.7762 0.6299 1.9118 2.5925z"/> </g> <g fill="#fff"> <path d="m652.57 1262.5-3.0121-12.904-4.5923 1.6892 5.5923 11.901 0.01207 0.0151 1.9852-0.696z"/> <path d="m636.01 1214-2.6623-5.3032-2.8244 0.791-0.0092 0.0044 1.5728 6.3213 3.919-1.8113z"/> <path d="m632.94 1209-1.6971-4.2937-1.8234 0.6426 1.4128 4.322 2.1064-0.6704z"/> </g> <g fill="#000"> <path d="m649.78 1250-13.477-36.46-4.448 1.644-0.2845 0.1052 0.02056 0.0608 13.452 36.393 4.7344-1.742z"/> <path d="m374.18 1095-16.003 7.4915-12.143-25.939 16.003-7.4915 12.143 25.939zm-8.0136 6.9627c-0.33374-0.7131-0.03199-1.5598 0.67463-1.8909 0.70696-0.3305 1.5502-0.0202 1.8841 0.6929 0.3338 0.7131 0.03247 1.5605-0.67438 1.8913-0.7069 0.3301-1.5505 0.0196-1.8843-0.6933m10.869-3.6589 0.0022-0.0013-14.553-31.086h-7e-5l-0.00299-0.0065-3.7e-4 4e-4c-0.3358-0.7085-1.1804-1.0131-1.8915-0.6804-0.00513 0.0022-0.00904 0.0049-0.01361 0.0069l-1.9e-4 -5e-4 -2.8992 1.3574-12.66 5.9268c-0.70983 0.3327-1.0163 1.1762-0.6881 1.8874l-2e-4 2e-4 14.556 31.092 0.00202-7e-4c0.00573 0.0137 0.0105 0.0276 0.01716 0.0415 0.3255 0.6956 1.1742 0.9861 1.8955 0.6484 0.01068-0.0051 0.02038-0.0114 0.03076-0.0166l9.1e-4 0.0018 15.543-7.2762c0.70159-0.3283 1.0088-1.1596 0.68322-1.855-0.00622-0.0139-0.01428-0.0268-0.02093-0.0397"/> </g> <g fill="#fff"> <path d="m362.04 1069.1 12.143 25.939-16.003 7.4915-12.143-25.939z"/> </g> <g fill="#a19a89"> <path d="m366.84 1100.1c0.70696-0.3305 1.5502-0.0202 1.8841 0.6929 0.3338 0.7131 0.03247 1.5605-0.67438 1.8913-0.7069 0.3301-1.5505 0.0196-1.8843-0.6933-0.33374-0.7131-0.03199-1.5598 0.67463-1.8909z"/> </g> <g fill="#000"> <path d="m672.68 1195.7-16.003 7.491-12.143-25.939 16.003-7.4915 12.143 25.94zm-8.0136 6.9621c-0.3337-0.7128-0.03195-1.5595 0.67465-1.8903 0.70691-0.3308 1.5502-0.0203 1.8841 0.6926 0.33375 0.7134 0.03235 1.5603-0.67445 1.8914-0.7069 0.3298-1.5505 0.0192-1.8843-0.6937m10.869-3.6586 0.00217-1e-3 -14.553-31.086h-1e-4l-3e-3 -0.0066-4e-4 5e-4c-0.33586-0.7085-1.1804-1.0132-1.8915-0.6805-0.00516 0.0022-9e-3 0.0047-0.01364 0.0069l-1.6e-4 -5e-4 -2.8992 1.3574-12.66 5.9268c-0.7098 0.3325-1.0163 1.1762-0.68804 1.8874l-3e-4 3e-4 14.556 31.092 0.00204-7e-4c0.0058 0.0137 0.0105 0.0276 0.01716 0.0415 0.32543 0.6953 1.1742 0.9861 1.8954 0.6482 0.01076-0.0051 0.02046-0.0112 0.03082-0.0166l8.4e-4 2e-3 15.543-7.2759c0.7016-0.3286 1.0088-1.1597 0.68323-1.8552-0.00627-0.014-0.01437-0.0269-0.02097-0.0398"/> </g> <g fill="#fff"> <path d="m660.53 1169.8 12.143 25.94-16.003 7.491-12.143-25.939z"/> </g> <g fill="#a19a89"> <path d="m665.34 1200.8c0.70691-0.3308 1.5502-0.0203 1.8841 0.6926 0.33375 0.7134 0.03235 1.5603-0.67445 1.8914-0.7069 0.3298-1.5505 0.0192-1.8843-0.6937-0.3337-0.7128-0.03195-1.5595 0.67465-1.8903z"/> </g> <g fill="#ecf0f1"> <path d="m494.69 1017.8 28.391-0.16517-0.19496-33.502-28.391 0.1646 0.19482 33.502z"/> <path d="m526.42 990.43-0.00386-0.6568-0.0038-0.65687q6.8597-0.03983 13.719-0.07953l0.0076 1.3133q-6.8597 0.04004-13.719 0.0799z"/> <path d="m494.47 980.77-0.00758-1.3142 49.777-0.28895 0.00769 1.3142-49.777 0.289z"/> </g> <g fill="#f00"> <path d="m516.66 1025.8 6e-5 -3e-4v3e-4l-6e-5 -3e-4 6e-5 3e-4v-3e-4q0 3e-4 -6e-5 3e-4z"/> </g> <g fill="#fff"> <path d="m542.81 1027c0.76775-0.0044 1.3872-0.6309 1.3826-1.3997-0.0045-0.7678-0.6309-1.3872-1.3988-1.3828-0.7692 0.0044-1.3881 0.6311-1.3836 1.3992 0.0044 0.7678 0.6309 1.3877 1.3998 1.3833z"/> <path d="m548.01 1026.9c0.76834-0.0044 1.3872-0.6308 1.3827-1.3996-0.0045-0.7679-0.63084-1.387-1.3988-1.3826-0.76831 0.0044-1.3872 0.6309-1.3827 1.3989 0.0044 0.7678 0.63064 1.388 1.3988 1.3833z"/> </g> <g fill="#ecf0f1"> <path d="m526.58 1017.6-0.00769-1.3144 24.417-0.1416 0.00756 1.3141-24.416 0.1419z"/> <path d="m526.55 1012.2-0.00784-1.3142 24.417-0.1415 0.0077 1.3141-24.417 0.1416z"/> <path d="m526.52 1006.8-0.0076-1.3144 19.586-0.11359 0.0077 1.3141-19.587 0.11384z"/> <path d="m526.49 1001.3-0.00769-1.3145 24.417-0.1416 0.0077 1.3142-24.417 0.1419z"/> <path d="m526.46 995.87-0.00763-1.3143 24.416-0.14165 0.0077 1.3141-24.417 0.1419z"/> <path d="m494.44 975.33-0.00769-1.3146 49.777-0.28881 0.00767 1.3142-49.777 0.2893z"/> <path d="m494.41 969.89-0.00763-1.3143 39.93-0.2318 0.0077 1.3142-39.93 0.2319z"/> <path d="m494.38 964.45-0.00763-1.3144 49.777-0.28886 0.00751 1.3142-49.777 0.28905z"/> <path d="m494.35 959.01-0.00763-1.3145 49.777-0.289 0.00776 1.3142-49.777 0.28937z"/> <path d="m526.55 1012.2v-4e-4q0 2e-4 0 4e-4z"/> </g> <g fill="#000"> <path d="m526.51 1006v-3e-4 3e-4 -3e-4q0 1.6e-4 0 3e-4z"/> <path d="m526.51 1006v-3e-4 3e-4 -3e-4q0 1.6e-4 0 3e-4z"/> <path d="m532.58 1002.6v-2e-4 2e-4 -2e-4 2e-4 -2e-4q0 2e-4 0 2e-4z"/> </g> <g fill="#f7b239"> <path d="m508.01 1014.6-0.57465-10.618-9.5688 4.3396c-0.00226 3.8727 3.1353 7.0138 7.0077 7.016 1.1279 0.00104 2.1939-0.2649 3.1358-0.7373z"/> </g> <g fill="#f95428"> <path d="m511.89 1008.4c4.9e-4 -0.93156-0.1792-1.8191-0.50926-2.6308l-0.0021-2e-4 -6.7488-1.5182 0.24805 4.1451 3.1316 6.2745c2.3008-1.1485 3.8788-3.5258 3.8804-6.2704z"/> </g> <g fill="#2ba5f7"> <path d="m511.38 1005.7 0.0021-2e-4c-1.0383-2.5686-3.5557-4.3833-6.4986-4.385-3.8726-0.00226-7.0137 3.1353-7.0159 7.0079l7.0118 0.00396 6.5006-2.6266z"/> </g> <g fill="#f7b239"> <path d="m515.04 999.97 4.8287 0.0028 0.0078-13.345-4.8287-0.00313-0.00777 13.345zm0 0 4.8287 0.0028 0.0078-13.345-4.8287-0.00313-0.00777 13.345zm0 0 4.8287 0.0028 0.0078-13.345-4.8287-0.00313-0.00777 13.345zm0 0 4.8287 0.0028 0.0078-13.345-4.8287-0.00313-0.00777 13.345z"/> <path d="m506.18 995.77 4.8287 0.00274 0.00525-9.1475-4.8286-3e-3 -0.00537 9.1478zm0 0 4.8287 0.00274 0.00525-9.1475-4.8286-3e-3 -0.00537 9.1478zm0 0 4.8287 0.00274 0.00525-9.1475-4.8286-3e-3 -0.00537 9.1478zm0 0 4.8287 0.00274 0.00525-9.1475-4.8286-3e-3 -0.00537 9.1478z"/> </g> <g fill="#2ba5f7"> <path d="m497.32 992.31 4.8286 0.00274 0.00335-5.696-4.8286-0.00305-0.0033 5.6963zm0 0 4.8286 0.00274 0.00335-5.696-4.8286-0.00305-0.0033 5.6963zm0 0 4.8286 0.00274 0.00335-5.696-4.8286-0.00305-0.0033 5.6963zm0 0 4.8286 0.00274 0.00335-5.696-4.8286-0.00305-0.0033 5.6963z"/> </g> <g fill="#ff9d81"> <path d="m480.23 927.66 0.0711 1.0989q0.48279 6.3761-0.33398 8.0741-9.232 10.545-9.6104 14.459-0.06548 0.2476-0.01757 1.3649l0.46545 3.2513q0.22669 5.2811 0.5979 6.5735 0.70868 3.4352 2.6174 7.2276 1.993 3.8445 3.3453 4.793 1.4981 0.99072 1.8805-0.56713 0.16912-1.4562-0.21247-2.6907-0.18438-1.0338-2.3022-6.9074-0.4682-1.4225-0.67102-2.4812-0.3639-1.8658-0.20246-3.7928 3.0287 4.4457 4.9527 6.205 0.43114 0.43274 1.5774 1.3697l3.7746 2.8311 2.815 2.3386q1.9699 1.3999 3.4041-0.5276 0.43469-1.6116-0.9253-2.9802 0.06635-0.32925-7.3754-6.6382-1.7954-1.7902-2.7176-3.5392l11.594 8.3523q1.7029 0.9686 2.1601 0.89197 0.71025 0.04063 1.0305-0.42774 0.758-1.5036-1.8687-4.0912-2.321-2.2853-10.072-7.2765 7.0649 5.5084 9.1049 6.2951 2.0976 0.93264 2.6052 0.7572 0.71422-0.09494 0.63532-0.8492-0.24744-1.414-1.3326-2.7112-0.61304-0.8032-2.3698-2.1213l-4.1484-4.6355q4.6612-8.0871 4.9869-10.998 0.18805-1.205 0.10925-2.2235-0.1391-1.5134-0.50336-2.8693l-0.31816-6.551-12.747-1.0038z"/> </g> <g fill="#222b32"> <path d="m472.95 825.09 12.987 4.9e-4 12.987 6.1e-4q0 56.131 7e-5 112.26-12.987 5e-4 -25.973 9.7e-4 -8e-5 -56.132-8e-5 -112.26"/> </g> <g fill="#ecf0f1"> <path d="m525.56 1185.9 29.993 0.0853-0.10101 35.391-29.992-0.0852 0.10089-35.391z"/> <path d="m559.17 1214.8-0.00208 0.6936-0.00183 0.6941q7.2465 0.0205 14.493 0.0408l0.00396-1.3872q-7.2466-0.0208-14.493-0.0413z"/> <path d="m525.45 1225.1-0.00385 1.3882 52.584 0.1494 0.0039-1.3882-52.584-0.1494z"/> </g> <g fill="#f00"> <path d="m548.75 1177.4 4e-5 3e-4v-3e-4l-4e-5 3e-4 4e-5 -3e-4v3e-4q0-3e-4 -4e-5 -3e-4z"/> </g> <g fill="#ecf0f1"> <path d="m559.26 1186-0.00405 1.3887 25.794 0.0728 0.00396-1.3882-25.794-0.0733z"/> <path d="m559.24 1191.8-0.0041 1.3885 25.794 0.0727 0.00395-1.3882-25.794-0.073z"/> <path d="m559.22 1197.5-4e-3 1.3885 20.691 0.0586 4e-3 -1.3882-20.691-0.0589z"/> <path d="m559.21 1203.3-0.00395 1.389 25.794 0.0727 0.00395-1.3884-25.794-0.0733z"/> <path d="m559.19 1209-0.00391 1.3887 25.794 0.0728 4e-3 -1.388-25.794-0.0735z"/> <path d="m525.44 1230.8-0.00406 1.3887 52.584 0.1494 0.0041-1.3882-52.584-0.1499z"/> <path d="m525.42 1236.6-0.00397 1.3882 42.182 0.1201 0.0041-1.3882-42.182-0.1201z"/> <path d="m525.4 1242.3-0.0039 1.3887 52.584 0.1494 0.0038-1.3884-52.584-0.1497z"/> <path d="m525.39 1248.1-0.00396 1.3887 52.584 0.1497 0.00407-1.3882-52.584-0.1502z"/> <path d="m559.24 1191.8v5e-4q0-3e-4 0-5e-4z"/> </g> <g fill="#000"> <path d="m559.22 1198.3v5e-4 -5e-4 5e-4q0-2e-4 0-5e-4z"/> <path d="m559.22 1198.3v5e-4 -5e-4 5e-4q0-2e-4 0-5e-4z"/> <path d="m565.64 1201.9v3e-4 -3e-4 3e-4 -3e-4 3e-4q0-3e-4 0-3e-4z"/> </g> <g fill="#f7b239"> <path d="m539.65 1189.2-0.5737 11.219-10.122-4.5545c-0.0146-4.091 3.29-7.4187 7.3809-7.4333 1.1915-0.0046 2.3184 0.2729 3.3147 0.7688z"/> </g> <g fill="#f95428"> <path d="m543.77 1195.9c0.00335 0.9839-0.1836 1.9222-0.5298 2.7806l-0.0021 2e-4 -7.1245 1.6252 0.24909-4.3796 3.2884-6.6384c2.4341 1.206 4.1085 3.7126 4.1189 6.612z"/> </g> <g fill="#2ba5f7"> <path d="m543.23 1198.6 0.0021 2e-4c-1.0888 2.7168-3.7424 4.6416-6.8512 4.6526-4.0909 0.0146-7.419-3.29-7.4334-7.3809l7.4071-0.0261 6.8754 2.7542z"/> </g> <g fill="#f7b239"> <path d="m547.11 1204.7 5.1009-0.018 0.05011 14.097-5.101 0.0183-0.05-14.098zm0 0 5.1009-0.018 0.05011 14.097-5.101 0.0183-0.05-14.098zm0 0 5.1009-0.018 0.05011 14.097-5.101 0.0183-0.05-14.098zm0 0 5.1009-0.018 0.05011 14.097-5.101 0.0183-0.05-14.098z"/> <path d="m537.77 1209.2 5.1009-0.0184 0.03415 9.6634-5.1008 0.018-0.03424-9.663zm0 0 5.1009-0.0184 0.03415 9.6634-5.1008 0.018-0.03424-9.663zm0 0 5.1009-0.0184 0.03415 9.6634-5.1008 0.018-0.03424-9.663zm0 0 5.1009-0.0184 0.03415 9.6634-5.1008 0.018-0.03424-9.663z"/> </g> <g fill="#2ba5f7"> <path d="m528.42 1212.9 5.1008-0.0181 0.02136 6.0171-5.1009 0.0183-0.02133-6.0173zm0 0 5.1008-0.0181 0.02136 6.0171-5.1009 0.0183-0.02133-6.0173zm0 0 5.1008-0.0181 0.02136 6.0171-5.1009 0.0183-0.02133-6.0173zm0 0 5.1008-0.0181 0.02136 6.0171-5.1009 0.0183-0.02133-6.0173z"/> </g> <g fill="#ecf0f1"> <path d="m624.27 1085.2-0.5182-29.988 35.386-0.6114 0.51834 29.988-35.386 0.6113z"/> </g> <g fill="#f00"> <path d="m615.31 1062.2h3.6e-4 -3.6e-4 2.6e-4 -2.6e-4 3.6e-4q-3.6e-4 0-3.6e-4 0z"/> </g> <g fill="#000"> <path d="m635.95 1051.3h3.5e-4 -3.5e-4 3.5e-4q-2e-4 0-3.5e-4 0z"/> <path d="m635.95 1051.3h3.5e-4 -3.5e-4 3.5e-4q-2e-4 0-3.5e-4 0z"/> </g> <g fill="#f7b239"> <path d="m627.31 1071 11.228 0.3476-4.3497 10.212c-4.09 0.0972-7.4836-3.1399-7.5805-7.2295-0.02857-1.1912 0.22644-2.3235 0.70214-3.3296z"/> </g> <g fill="#f95428"> <path d="m633.84 1066.8c0.9837-0.023 1.9256 0.145 2.7908 0.4738l3e-4 0.0022 1.7681 7.0904-4.3838-0.1609-6.7031-3.1543c1.1568-2.4578 3.629-4.1821 6.5277-4.2512z"/> </g> <g fill="#2ba5f7"> <path d="m636.63 1067.3 3e-4 -0.0022c2.7379 1.034 4.7158 3.6482 4.7893 6.7562 0.0969 4.0898-3.1402 7.4836-7.2298 7.5803l-0.1751-7.4051 2.6153-6.9292z"/> </g> <g fill="#f7b239"> <path d="m642.62 1063.3-0.1207-5.0993 14.094-0.3337 0.12091 5.0993-14.094 0.3337zm0 0-0.1207-5.0993 14.094-0.3337 0.12091 5.0993-14.094 0.3337zm0 0-0.1207-5.0993 14.094-0.3337 0.12091 5.0993-14.094 0.3337zm0 0-0.1207-5.0993 14.094-0.3337 0.12091 5.0993-14.094 0.3337z"/> <path d="m647.28 1072.5-0.12087-5.0993 9.6607-0.2288 0.1206 5.0994-9.6604 0.2287zm0 0-0.12087-5.0993 9.6607-0.2288 0.1206 5.0994-9.6604 0.2287zm0 0-0.12087-5.0993 9.6607-0.2288 0.1206 5.0994-9.6604 0.2287zm0 0-0.12087-5.0993 9.6607-0.2288 0.1206 5.0994-9.6604 0.2287z"/> </g> <g fill="#2ba5f7"> <path d="m651.14 1081.8-0.1208-5.0994 6.0154-0.1423 0.12109 5.0994-6.0156 0.1423zm0 0-0.1208-5.0994 6.0154-0.1423 0.12109 5.0994-6.0156 0.1423zm0 0-0.1208-5.0994 6.0154-0.1423 0.12109 5.0994-6.0156 0.1423zm0 0-0.1208-5.0994 6.0154-0.1423 0.12109 5.0994-6.0156 0.1423z"/> </g> <g fill="#f7b239"> <path d="m450.61 1096.7-0.92675 11.195-9.9732-4.871c0.11432-4.0894 3.5221-7.3111 7.6112-7.1968 1.191 0.0332 2.3086 0.3459 3.2887 0.8728z"/> </g> <g fill="#f95428"> <path d="m454.52 1103.4c-0.02764 0.9834-0.24399 1.9153-0.61704 2.7625l-0.00213-3e-4 -7.1717 1.4002 0.38678-4.3697 3.4957-6.5312c2.3948 1.2824 3.9893 3.8401 3.9083 6.7385z"/> </g> <g fill="#2ba5f7"> <path d="m453.9 1106.2 0.00213 5e-4c-1.1738 2.6809-3.8865 4.5212-6.994 4.434-4.0892-0.114-7.3115-3.5217-7.1971-7.611l7.4041 0.2072 6.7848 2.9693z"/> </g> <g fill="#ecf0f1"> <path d="m398.82 1088.5-0.00362 1.2184-0.00328 1.2192q12.729 0.0361 25.458 0.0716l0.00693-2.4368q-12.729-0.0364-25.458-0.0724z"/> <path d="m398.97 1038-0.00708 2.4392 45.309 0.1279 0.0069-2.4385-45.309-0.1286z"/> <path d="m398.94 1048.1-0.00724 2.4388 45.309 0.1278 7e-3 -2.4386-45.309-0.128z"/> <path d="m398.91 1058.2-0.00699 2.4388 36.346 0.1029 0.00714-2.4383-36.346-0.1034z"/> <path d="m398.88 1068.3-0.00699 2.4398 45.309 0.1277 0.00693-2.4388-45.309-0.1287z"/> <path d="m398.85 1078.4-0.0069 2.4392 45.309 0.1278 0.00705-2.4379-45.309-0.1291z"/> <path d="m398.94 1048.1v8e-4q0-2e-4 0-8e-4z"/> </g> <g fill="#000"> <path d="m398.9 1059.6v7e-4 -7e-4 7e-4q0-3e-4 0-7e-4z"/> <path d="m398.9 1059.6v7e-4 -7e-4 7e-4q0-3e-4 0-7e-4z"/> <path d="m410.18 1065.9v3e-4 -3e-4 3e-4 -3e-4 3e-4q0-3e-4 0-3e-4z"/> </g> </g> </svg>